<?xml version="1.0" standalone="no"?>
<!DOCTYPE svg PUBLIC "-//W3C//DTD SVG 20010904//EN"
 "http://www.w3.org/TR/2001/REC-SVG-20010904/DTD/svg10.dtd">
<svg version="1.0" xmlns="http://www.w3.org/2000/svg"
 width="600.000000pt" height="372.000000pt" viewBox="0 0 600.000000 372.000000"
 preserveAspectRatio="xMidYMid meet">

<g transform="translate(0.000000,372.000000) scale(0.100000,-0.100000)"
fill="#000000" stroke="none">
<path d="M395 3698 c17 -12 66 -57 110 -100 l80 -77 -45 -46 c-60 -62 -185
-156 -282 -212 -67 -40 -76 -48 -66 -62 7 -9 -14 9 -46 39 -32 30 -77 81 -102
113 l-44 59 0 -245 0 -246 43 -34 c53 -43 109 -77 167 -102 25 -10 49 -22 53
-25 13 -11 -51 -164 -75 -179 -13 -7 -60 -41 -105 -74 l-83 -61 0 -1223 0
-1223 2157 2 2157 3 9 43 c10 53 -10 130 -52 192 l-30 44 78 76 c94 91 157
179 211 291 63 133 82 219 87 404 6 188 -13 325 -72 519 l-36 119 12 100 c17
149 6 500 -20 657 -51 298 -138 536 -251 686 -21 27 -60 98 -88 157 -54 115
-126 239 -205 355 l-49 72 -1593 0 -1593 0 -31 -54 c-16 -30 -35 -57 -41 -61
-7 -4 -24 4 -38 18 -15 13 -51 41 -79 61 -46 31 -60 36 -110 36 l-58 -1 30
-21z m2152 -881 c81 -21 117 -52 227 -197 159 -209 244 -274 356 -274 65 0 93
14 185 88 37 31 85 61 107 67 35 9 46 7 94 -16 32 -16 61 -39 73 -59 29 -46
36 -130 17 -185 -18 -48 -14 -65 8 -36 12 17 18 15 99 -39 177 -117 283 -269
338 -483 19 -73 23 -115 24 -245 0 -87 3 -158 8 -158 8 0 8 -5 16 127 l6 103
49 -38 c27 -20 61 -58 75 -83 l26 -47 -23 -78 c-49 -167 -147 -336 -260 -447
l-59 -59 -28 25 -29 24 43 51 43 50 34 -20 c19 -11 34 -16 34 -11 0 5 -13 17
-30 26 l-30 18 41 74 c22 41 39 83 37 92 -3 12 -11 2 -26 -30 -37 -82 -110
-183 -177 -244 -104 -97 -95 -96 -221 -19 -103 63 -111 66 -170 66 -54 0 -74
-6 -145 -42 l-82 -42 -38 43 c-24 27 -44 63 -54 99 -33 114 -109 201 -224 256
-64 30 -71 31 -196 31 -191 -1 -342 -45 -471 -137 l-41 -29 -49 30 c-109 66
-222 93 -304 71 -25 -6 -105 -45 -179 -86 l-134 -75 -56 37 c-108 72 -213 199
-272 330 l-29 64 -69 0 -69 0 -18 45 c-9 25 -21 45 -26 45 -6 0 -7 -8 -3 -17
18 -44 17 -53 -2 -53 -11 0 -47 -3 -81 -6 -60 -7 -60 -6 -76 24 -12 24 -16 62
-16 170 0 155 17 277 56 394 28 85 51 110 117 130 32 10 43 19 58 54 21 50 46
59 159 52 39 -2 70 -1 70 3 0 3 29 40 64 81 182 213 384 288 774 288 172 0
172 0 172 23 1 64 69 147 142 174 44 16 74 16 135 0z"/>
<path d="M2344 2537 c20 -27 36 -53 36 -59 0 -6 3 -9 6 -6 9 9 -21 60 -51 88
-23 20 -21 16 9 -23z"/>
<path d="M2391 2444 c0 -11 3 -14 6 -6 3 7 2 16 -1 19 -3 4 -6 -2 -5 -13z"/>
<path d="M1940 2321 c-288 -63 -452 -251 -467 -536 -9 -178 39 -309 156 -426
87 -87 149 -112 276 -113 119 -1 164 16 316 116 185 123 187 123 364 123 121
0 161 -4 205 -19 176 -60 282 -145 354 -284 54 -106 110 -161 187 -188 124
-42 245 -11 333 87 58 65 92 138 118 252 40 181 14 308 -92 449 -43 57 -135
138 -204 179 l-38 22 23 18 c40 31 4 21 -58 -16 -80 -47 -168 -69 -283 -69
-204 -1 -397 96 -628 317 l-107 102 -185 2 c-149 2 -201 -1 -270 -16z"/>
<path d="M1227 2155 c-24 -74 -40 -191 -44 -319 -5 -113 -3 -147 6 -142 6 4 9
16 6 25 -8 27 12 268 30 356 15 71 16 125 2 80z"/>
<path d="M971 2043 c-18 -96 -30 -251 -31 -375 0 -180 17 -121 23 80 4 103 13
223 22 267 17 94 17 95 7 95 -5 0 -14 -30 -21 -67z"/>
<path d="M1005 1570 c-22 -6 -10 -8 45 -8 41 0 84 3 95 8 26 11 -97 11 -140 0z"/>
<path d="M843 1513 c-18 -2 -33 -9 -33 -14 0 -11 96 -1 120 12 16 9 -24 10
-87 2z"/>
</g>
</svg>
